<?xml version="1.0" encoding="utf-8"?>
<!-- Generator: Adobe Illustrator 21.0.0, SVG Export Plug-In . SVG Version: 6.00 Build 0)  -->
<!DOCTYPE svg PUBLIC "-//W3C//DTD SVG 1.1//EN" "http://www.w3.org/Graphics/SVG/1.1/DTD/svg11.dtd">
<svg version="1.1" id="Layer_1" xmlns="http://www.w3.org/2000/svg" xmlns:xlink="http://www.w3.org/1999/xlink" x="0px" y="0px"
	 width="44.8333321px" height="40.8333321px" viewBox="0 0 44.8333321 40.8333321"
	 style="enable-background:new 0 0 44.8333321 40.8333321;" xml:space="preserve">
<style type="text/css">
	.st0{fill:#353838;}
	.st1{fill:#FFFFFF;}
</style>
<path class="st0" d="M40.8333321,40.8333321H4c-2.2,0-4-1.7999992-4-4V4c0-2.2,1.8-4,4-4h36.8333321c2.2000008,0,4,1.8,4,4
	v32.8333321C44.8333321,39.0333328,43.0333328,40.8333321,40.8333321,40.8333321z"/>
<g>
	<g>
		<path class="st1" d="M17.4918079,18.7184238v3.3964844c0,0,3.2948608-0.0044556,4.6364746-0.0044556
			c-0.7264404,2.2018433-1.8561401,3.4008789-4.6364746,3.4008789c-2.8137217,0-5.0097666-2.2810059-5.0097666-5.0946655
			c0-2.8137207,2.1960449-5.0947256,5.0097666-5.0947256c1.4876709,0,2.4484253,0.5228882,3.3297119,1.251708
			c0.7054443-0.7054434,0.6465454-0.8059683,2.4412842-2.5009146c-1.5234985-1.3867188-3.5485229-2.2321167-5.7709961-2.2321167
			c-4.7364511,0-8.5760508,3.8395996-8.5760508,8.5760489c0,4.7363892,3.8395996,8.5760498,8.5760508,8.5760498
			c7.0796509,0,8.8100586-6.1645508,8.2363892-10.274292C24.0522327,18.7184238,17.4918079,18.7184238,17.4918079,18.7184238z
			 M32.9456635,18.8882236v-2.9718618h-2.1227398v2.9718618h-3.0568237v2.1228027h3.0568237v3.0568237h2.1227398v-3.0568237
			h2.9719238v-2.1228027H32.9456635z"/>
	</g>
</g>
</svg>
